G04 #@! TF.GenerationSoftware,KiCad,Pcbnew,(5.0.0)*
G04 #@! TF.CreationDate,2019-02-06T23:56:32-08:00*
G04 #@! TF.ProjectId,Tele(8)_PCB_v1,54656C652838295F5043425F76312E6B,rev?*
G04 #@! TF.SameCoordinates,Original*
G04 #@! TF.FileFunction,Soldermask,Bot*
G04 #@! TF.FilePolarity,Negative*
%FSLAX46Y46*%
G04 Gerber Fmt 4.6, Leading zero omitted, Abs format (unit mm)*
G04 Created by KiCad (PCBNEW (5.0.0)) date 02/06/19 23:56:32*
%MOMM*%
%LPD*%
G01*
G04 APERTURE LIST*
%ADD10C,2.178000*%
%ADD11R,2.178000X2.178000*%
%ADD12C,3.702000*%
%ADD13R,2.100000X2.400000*%
%ADD14O,2.100000X2.400000*%
%ADD15C,1.708000*%
G04 APERTURE END LIST*
D10*
G04 #@! TO.C,LR1*
X132004999Y-115645001D03*
X132004999Y-113105001D03*
X132004999Y-110565001D03*
X132004999Y-108025001D03*
X132004999Y-105485001D03*
X132004999Y-102945001D03*
X132004999Y-100405001D03*
X132004999Y-97865001D03*
X132004999Y-95325001D03*
X132004999Y-92785001D03*
D11*
X132004999Y-87705001D03*
D10*
X132004999Y-90245001D03*
D11*
X111684999Y-115645001D03*
D10*
X111684999Y-113105001D03*
X111684999Y-110565001D03*
X111684999Y-108025001D03*
X111684999Y-105485001D03*
X111684999Y-102945001D03*
X111684999Y-100405001D03*
X111684999Y-97865001D03*
X111684999Y-95325001D03*
X111684999Y-92785001D03*
X111684999Y-90245001D03*
X111684999Y-87705001D03*
X111684999Y-85165001D03*
X111684999Y-82625001D03*
X111684999Y-80085001D03*
X111684999Y-77545001D03*
D12*
X130734999Y-119455001D03*
X112954999Y-119455001D03*
X112954999Y-73735001D03*
X130734999Y-73735001D03*
G04 #@! TD*
D13*
G04 #@! TO.C,J1*
X97790000Y-78740000D03*
D14*
X100290000Y-78740000D03*
G04 #@! TD*
D15*
G04 #@! TO.C,LS1*
X101600000Y-104700000D03*
X101600000Y-111200000D03*
G04 #@! TD*
D10*
G04 #@! TO.C,SigIn*
X106680000Y-88900000D03*
G04 #@! TD*
G04 #@! TO.C,exGnd*
X96520000Y-87630000D03*
G04 #@! TD*
G04 #@! TO.C,sigIn*
X106680000Y-97790000D03*
G04 #@! TD*
G04 #@! TO.C,exGnd*
X96520000Y-99060000D03*
G04 #@! TD*
M02*
