G04 #@! TF.GenerationSoftware,KiCad,Pcbnew,(5.0.0)*
G04 #@! TF.CreationDate,2019-02-06T23:56:32-08:00*
G04 #@! TF.ProjectId,Tele(8)_PCB_v1,54656C652838295F5043425F76312E6B,rev?*
G04 #@! TF.SameCoordinates,Original*
G04 #@! TF.FileFunction,Soldermask,Top*
G04 #@! TF.FilePolarity,Negative*
%FSLAX46Y46*%
G04 Gerber Fmt 4.6, Leading zero omitted, Abs format (unit mm)*
G04 Created by KiCad (PCBNEW (5.0.0)) date 02/06/19 23:56:32*
%MOMM*%
%LPD*%
G01*
G04 APERTURE LIST*
%ADD10C,2.178000*%
%ADD11R,2.178000X2.178000*%
%ADD12C,3.702000*%
%ADD13C,0.100000*%
%ADD14C,1.350000*%
%ADD15R,2.100000X2.400000*%
%ADD16O,2.100000X2.400000*%
%ADD17C,1.708000*%
G04 APERTURE END LIST*
D10*
G04 #@! TO.C,LR1*
X132004999Y-115645001D03*
X132004999Y-113105001D03*
X132004999Y-110565001D03*
X132004999Y-108025001D03*
X132004999Y-105485001D03*
X132004999Y-102945001D03*
X132004999Y-100405001D03*
X132004999Y-97865001D03*
X132004999Y-95325001D03*
X132004999Y-92785001D03*
D11*
X132004999Y-87705001D03*
D10*
X132004999Y-90245001D03*
D11*
X111684999Y-115645001D03*
D10*
X111684999Y-113105001D03*
X111684999Y-110565001D03*
X111684999Y-108025001D03*
X111684999Y-105485001D03*
X111684999Y-102945001D03*
X111684999Y-100405001D03*
X111684999Y-97865001D03*
X111684999Y-95325001D03*
X111684999Y-92785001D03*
X111684999Y-90245001D03*
X111684999Y-87705001D03*
X111684999Y-85165001D03*
X111684999Y-82625001D03*
X111684999Y-80085001D03*
X111684999Y-77545001D03*
D12*
X130734999Y-119455001D03*
X112954999Y-119455001D03*
X112954999Y-73735001D03*
X130734999Y-73735001D03*
G04 #@! TD*
D13*
G04 #@! TO.C,D1*
G36*
X98797355Y-117692007D02*
X98830117Y-117696867D01*
X98862245Y-117704915D01*
X98893430Y-117716073D01*
X98923370Y-117730234D01*
X98951779Y-117747261D01*
X98978382Y-117766991D01*
X99002923Y-117789233D01*
X99025165Y-117813774D01*
X99044895Y-117840377D01*
X99061922Y-117868786D01*
X99076083Y-117898726D01*
X99087241Y-117929911D01*
X99095289Y-117962039D01*
X99100149Y-117994801D01*
X99101774Y-118027882D01*
X99101774Y-118702882D01*
X99100149Y-118735963D01*
X99095289Y-118768725D01*
X99087241Y-118800853D01*
X99076083Y-118832038D01*
X99061922Y-118861978D01*
X99044895Y-118890387D01*
X99025165Y-118916990D01*
X99002923Y-118941531D01*
X98978382Y-118963773D01*
X98951779Y-118983503D01*
X98923370Y-119000530D01*
X98893430Y-119014691D01*
X98862245Y-119025849D01*
X98830117Y-119033897D01*
X98797355Y-119038757D01*
X98764274Y-119040382D01*
X97989274Y-119040382D01*
X97956193Y-119038757D01*
X97923431Y-119033897D01*
X97891303Y-119025849D01*
X97860118Y-119014691D01*
X97830178Y-119000530D01*
X97801769Y-118983503D01*
X97775166Y-118963773D01*
X97750625Y-118941531D01*
X97728383Y-118916990D01*
X97708653Y-118890387D01*
X97691626Y-118861978D01*
X97677465Y-118832038D01*
X97666307Y-118800853D01*
X97658259Y-118768725D01*
X97653399Y-118735963D01*
X97651774Y-118702882D01*
X97651774Y-118027882D01*
X97653399Y-117994801D01*
X97658259Y-117962039D01*
X97666307Y-117929911D01*
X97677465Y-117898726D01*
X97691626Y-117868786D01*
X97708653Y-117840377D01*
X97728383Y-117813774D01*
X97750625Y-117789233D01*
X97775166Y-117766991D01*
X97801769Y-117747261D01*
X97830178Y-117730234D01*
X97860118Y-117716073D01*
X97891303Y-117704915D01*
X97923431Y-117696867D01*
X97956193Y-117692007D01*
X97989274Y-117690382D01*
X98764274Y-117690382D01*
X98797355Y-117692007D01*
X98797355Y-117692007D01*
G37*
D14*
X98376774Y-118365382D03*
D13*
G36*
X100547355Y-117692007D02*
X100580117Y-117696867D01*
X100612245Y-117704915D01*
X100643430Y-117716073D01*
X100673370Y-117730234D01*
X100701779Y-117747261D01*
X100728382Y-117766991D01*
X100752923Y-117789233D01*
X100775165Y-117813774D01*
X100794895Y-117840377D01*
X100811922Y-117868786D01*
X100826083Y-117898726D01*
X100837241Y-117929911D01*
X100845289Y-117962039D01*
X100850149Y-117994801D01*
X100851774Y-118027882D01*
X100851774Y-118702882D01*
X100850149Y-118735963D01*
X100845289Y-118768725D01*
X100837241Y-118800853D01*
X100826083Y-118832038D01*
X100811922Y-118861978D01*
X100794895Y-118890387D01*
X100775165Y-118916990D01*
X100752923Y-118941531D01*
X100728382Y-118963773D01*
X100701779Y-118983503D01*
X100673370Y-119000530D01*
X100643430Y-119014691D01*
X100612245Y-119025849D01*
X100580117Y-119033897D01*
X100547355Y-119038757D01*
X100514274Y-119040382D01*
X99739274Y-119040382D01*
X99706193Y-119038757D01*
X99673431Y-119033897D01*
X99641303Y-119025849D01*
X99610118Y-119014691D01*
X99580178Y-119000530D01*
X99551769Y-118983503D01*
X99525166Y-118963773D01*
X99500625Y-118941531D01*
X99478383Y-118916990D01*
X99458653Y-118890387D01*
X99441626Y-118861978D01*
X99427465Y-118832038D01*
X99416307Y-118800853D01*
X99408259Y-118768725D01*
X99403399Y-118735963D01*
X99401774Y-118702882D01*
X99401774Y-118027882D01*
X99403399Y-117994801D01*
X99408259Y-117962039D01*
X99416307Y-117929911D01*
X99427465Y-117898726D01*
X99441626Y-117868786D01*
X99458653Y-117840377D01*
X99478383Y-117813774D01*
X99500625Y-117789233D01*
X99525166Y-117766991D01*
X99551769Y-117747261D01*
X99580178Y-117730234D01*
X99610118Y-117716073D01*
X99641303Y-117704915D01*
X99673431Y-117696867D01*
X99706193Y-117692007D01*
X99739274Y-117690382D01*
X100514274Y-117690382D01*
X100547355Y-117692007D01*
X100547355Y-117692007D01*
G37*
D14*
X100126774Y-118365382D03*
G04 #@! TD*
D13*
G04 #@! TO.C,D2*
G36*
X100547355Y-120232007D02*
X100580117Y-120236867D01*
X100612245Y-120244915D01*
X100643430Y-120256073D01*
X100673370Y-120270234D01*
X100701779Y-120287261D01*
X100728382Y-120306991D01*
X100752923Y-120329233D01*
X100775165Y-120353774D01*
X100794895Y-120380377D01*
X100811922Y-120408786D01*
X100826083Y-120438726D01*
X100837241Y-120469911D01*
X100845289Y-120502039D01*
X100850149Y-120534801D01*
X100851774Y-120567882D01*
X100851774Y-121242882D01*
X100850149Y-121275963D01*
X100845289Y-121308725D01*
X100837241Y-121340853D01*
X100826083Y-121372038D01*
X100811922Y-121401978D01*
X100794895Y-121430387D01*
X100775165Y-121456990D01*
X100752923Y-121481531D01*
X100728382Y-121503773D01*
X100701779Y-121523503D01*
X100673370Y-121540530D01*
X100643430Y-121554691D01*
X100612245Y-121565849D01*
X100580117Y-121573897D01*
X100547355Y-121578757D01*
X100514274Y-121580382D01*
X99739274Y-121580382D01*
X99706193Y-121578757D01*
X99673431Y-121573897D01*
X99641303Y-121565849D01*
X99610118Y-121554691D01*
X99580178Y-121540530D01*
X99551769Y-121523503D01*
X99525166Y-121503773D01*
X99500625Y-121481531D01*
X99478383Y-121456990D01*
X99458653Y-121430387D01*
X99441626Y-121401978D01*
X99427465Y-121372038D01*
X99416307Y-121340853D01*
X99408259Y-121308725D01*
X99403399Y-121275963D01*
X99401774Y-121242882D01*
X99401774Y-120567882D01*
X99403399Y-120534801D01*
X99408259Y-120502039D01*
X99416307Y-120469911D01*
X99427465Y-120438726D01*
X99441626Y-120408786D01*
X99458653Y-120380377D01*
X99478383Y-120353774D01*
X99500625Y-120329233D01*
X99525166Y-120306991D01*
X99551769Y-120287261D01*
X99580178Y-120270234D01*
X99610118Y-120256073D01*
X99641303Y-120244915D01*
X99673431Y-120236867D01*
X99706193Y-120232007D01*
X99739274Y-120230382D01*
X100514274Y-120230382D01*
X100547355Y-120232007D01*
X100547355Y-120232007D01*
G37*
D14*
X100126774Y-120905382D03*
D13*
G36*
X98797355Y-120232007D02*
X98830117Y-120236867D01*
X98862245Y-120244915D01*
X98893430Y-120256073D01*
X98923370Y-120270234D01*
X98951779Y-120287261D01*
X98978382Y-120306991D01*
X99002923Y-120329233D01*
X99025165Y-120353774D01*
X99044895Y-120380377D01*
X99061922Y-120408786D01*
X99076083Y-120438726D01*
X99087241Y-120469911D01*
X99095289Y-120502039D01*
X99100149Y-120534801D01*
X99101774Y-120567882D01*
X99101774Y-121242882D01*
X99100149Y-121275963D01*
X99095289Y-121308725D01*
X99087241Y-121340853D01*
X99076083Y-121372038D01*
X99061922Y-121401978D01*
X99044895Y-121430387D01*
X99025165Y-121456990D01*
X99002923Y-121481531D01*
X98978382Y-121503773D01*
X98951779Y-121523503D01*
X98923370Y-121540530D01*
X98893430Y-121554691D01*
X98862245Y-121565849D01*
X98830117Y-121573897D01*
X98797355Y-121578757D01*
X98764274Y-121580382D01*
X97989274Y-121580382D01*
X97956193Y-121578757D01*
X97923431Y-121573897D01*
X97891303Y-121565849D01*
X97860118Y-121554691D01*
X97830178Y-121540530D01*
X97801769Y-121523503D01*
X97775166Y-121503773D01*
X97750625Y-121481531D01*
X97728383Y-121456990D01*
X97708653Y-121430387D01*
X97691626Y-121401978D01*
X97677465Y-121372038D01*
X97666307Y-121340853D01*
X97658259Y-121308725D01*
X97653399Y-121275963D01*
X97651774Y-121242882D01*
X97651774Y-120567882D01*
X97653399Y-120534801D01*
X97658259Y-120502039D01*
X97666307Y-120469911D01*
X97677465Y-120438726D01*
X97691626Y-120408786D01*
X97708653Y-120380377D01*
X97728383Y-120353774D01*
X97750625Y-120329233D01*
X97775166Y-120306991D01*
X97801769Y-120287261D01*
X97830178Y-120270234D01*
X97860118Y-120256073D01*
X97891303Y-120244915D01*
X97923431Y-120236867D01*
X97956193Y-120232007D01*
X97989274Y-120230382D01*
X98764274Y-120230382D01*
X98797355Y-120232007D01*
X98797355Y-120232007D01*
G37*
D14*
X98376774Y-120905382D03*
G04 #@! TD*
D15*
G04 #@! TO.C,J1*
X97790000Y-78740000D03*
D16*
X100290000Y-78740000D03*
G04 #@! TD*
D17*
G04 #@! TO.C,LS1*
X101600000Y-104700000D03*
X101600000Y-111200000D03*
G04 #@! TD*
D13*
G04 #@! TO.C,R1*
G36*
X103877355Y-117692007D02*
X103910117Y-117696867D01*
X103942245Y-117704915D01*
X103973430Y-117716073D01*
X104003370Y-117730234D01*
X104031779Y-117747261D01*
X104058382Y-117766991D01*
X104082923Y-117789233D01*
X104105165Y-117813774D01*
X104124895Y-117840377D01*
X104141922Y-117868786D01*
X104156083Y-117898726D01*
X104167241Y-117929911D01*
X104175289Y-117962039D01*
X104180149Y-117994801D01*
X104181774Y-118027882D01*
X104181774Y-118702882D01*
X104180149Y-118735963D01*
X104175289Y-118768725D01*
X104167241Y-118800853D01*
X104156083Y-118832038D01*
X104141922Y-118861978D01*
X104124895Y-118890387D01*
X104105165Y-118916990D01*
X104082923Y-118941531D01*
X104058382Y-118963773D01*
X104031779Y-118983503D01*
X104003370Y-119000530D01*
X103973430Y-119014691D01*
X103942245Y-119025849D01*
X103910117Y-119033897D01*
X103877355Y-119038757D01*
X103844274Y-119040382D01*
X103069274Y-119040382D01*
X103036193Y-119038757D01*
X103003431Y-119033897D01*
X102971303Y-119025849D01*
X102940118Y-119014691D01*
X102910178Y-119000530D01*
X102881769Y-118983503D01*
X102855166Y-118963773D01*
X102830625Y-118941531D01*
X102808383Y-118916990D01*
X102788653Y-118890387D01*
X102771626Y-118861978D01*
X102757465Y-118832038D01*
X102746307Y-118800853D01*
X102738259Y-118768725D01*
X102733399Y-118735963D01*
X102731774Y-118702882D01*
X102731774Y-118027882D01*
X102733399Y-117994801D01*
X102738259Y-117962039D01*
X102746307Y-117929911D01*
X102757465Y-117898726D01*
X102771626Y-117868786D01*
X102788653Y-117840377D01*
X102808383Y-117813774D01*
X102830625Y-117789233D01*
X102855166Y-117766991D01*
X102881769Y-117747261D01*
X102910178Y-117730234D01*
X102940118Y-117716073D01*
X102971303Y-117704915D01*
X103003431Y-117696867D01*
X103036193Y-117692007D01*
X103069274Y-117690382D01*
X103844274Y-117690382D01*
X103877355Y-117692007D01*
X103877355Y-117692007D01*
G37*
D14*
X103456774Y-118365382D03*
D13*
G36*
X105627355Y-117692007D02*
X105660117Y-117696867D01*
X105692245Y-117704915D01*
X105723430Y-117716073D01*
X105753370Y-117730234D01*
X105781779Y-117747261D01*
X105808382Y-117766991D01*
X105832923Y-117789233D01*
X105855165Y-117813774D01*
X105874895Y-117840377D01*
X105891922Y-117868786D01*
X105906083Y-117898726D01*
X105917241Y-117929911D01*
X105925289Y-117962039D01*
X105930149Y-117994801D01*
X105931774Y-118027882D01*
X105931774Y-118702882D01*
X105930149Y-118735963D01*
X105925289Y-118768725D01*
X105917241Y-118800853D01*
X105906083Y-118832038D01*
X105891922Y-118861978D01*
X105874895Y-118890387D01*
X105855165Y-118916990D01*
X105832923Y-118941531D01*
X105808382Y-118963773D01*
X105781779Y-118983503D01*
X105753370Y-119000530D01*
X105723430Y-119014691D01*
X105692245Y-119025849D01*
X105660117Y-119033897D01*
X105627355Y-119038757D01*
X105594274Y-119040382D01*
X104819274Y-119040382D01*
X104786193Y-119038757D01*
X104753431Y-119033897D01*
X104721303Y-119025849D01*
X104690118Y-119014691D01*
X104660178Y-119000530D01*
X104631769Y-118983503D01*
X104605166Y-118963773D01*
X104580625Y-118941531D01*
X104558383Y-118916990D01*
X104538653Y-118890387D01*
X104521626Y-118861978D01*
X104507465Y-118832038D01*
X104496307Y-118800853D01*
X104488259Y-118768725D01*
X104483399Y-118735963D01*
X104481774Y-118702882D01*
X104481774Y-118027882D01*
X104483399Y-117994801D01*
X104488259Y-117962039D01*
X104496307Y-117929911D01*
X104507465Y-117898726D01*
X104521626Y-117868786D01*
X104538653Y-117840377D01*
X104558383Y-117813774D01*
X104580625Y-117789233D01*
X104605166Y-117766991D01*
X104631769Y-117747261D01*
X104660178Y-117730234D01*
X104690118Y-117716073D01*
X104721303Y-117704915D01*
X104753431Y-117696867D01*
X104786193Y-117692007D01*
X104819274Y-117690382D01*
X105594274Y-117690382D01*
X105627355Y-117692007D01*
X105627355Y-117692007D01*
G37*
D14*
X105206774Y-118365382D03*
G04 #@! TD*
D13*
G04 #@! TO.C,R2*
G36*
X105627355Y-120232007D02*
X105660117Y-120236867D01*
X105692245Y-120244915D01*
X105723430Y-120256073D01*
X105753370Y-120270234D01*
X105781779Y-120287261D01*
X105808382Y-120306991D01*
X105832923Y-120329233D01*
X105855165Y-120353774D01*
X105874895Y-120380377D01*
X105891922Y-120408786D01*
X105906083Y-120438726D01*
X105917241Y-120469911D01*
X105925289Y-120502039D01*
X105930149Y-120534801D01*
X105931774Y-120567882D01*
X105931774Y-121242882D01*
X105930149Y-121275963D01*
X105925289Y-121308725D01*
X105917241Y-121340853D01*
X105906083Y-121372038D01*
X105891922Y-121401978D01*
X105874895Y-121430387D01*
X105855165Y-121456990D01*
X105832923Y-121481531D01*
X105808382Y-121503773D01*
X105781779Y-121523503D01*
X105753370Y-121540530D01*
X105723430Y-121554691D01*
X105692245Y-121565849D01*
X105660117Y-121573897D01*
X105627355Y-121578757D01*
X105594274Y-121580382D01*
X104819274Y-121580382D01*
X104786193Y-121578757D01*
X104753431Y-121573897D01*
X104721303Y-121565849D01*
X104690118Y-121554691D01*
X104660178Y-121540530D01*
X104631769Y-121523503D01*
X104605166Y-121503773D01*
X104580625Y-121481531D01*
X104558383Y-121456990D01*
X104538653Y-121430387D01*
X104521626Y-121401978D01*
X104507465Y-121372038D01*
X104496307Y-121340853D01*
X104488259Y-121308725D01*
X104483399Y-121275963D01*
X104481774Y-121242882D01*
X104481774Y-120567882D01*
X104483399Y-120534801D01*
X104488259Y-120502039D01*
X104496307Y-120469911D01*
X104507465Y-120438726D01*
X104521626Y-120408786D01*
X104538653Y-120380377D01*
X104558383Y-120353774D01*
X104580625Y-120329233D01*
X104605166Y-120306991D01*
X104631769Y-120287261D01*
X104660178Y-120270234D01*
X104690118Y-120256073D01*
X104721303Y-120244915D01*
X104753431Y-120236867D01*
X104786193Y-120232007D01*
X104819274Y-120230382D01*
X105594274Y-120230382D01*
X105627355Y-120232007D01*
X105627355Y-120232007D01*
G37*
D14*
X105206774Y-120905382D03*
D13*
G36*
X103877355Y-120232007D02*
X103910117Y-120236867D01*
X103942245Y-120244915D01*
X103973430Y-120256073D01*
X104003370Y-120270234D01*
X104031779Y-120287261D01*
X104058382Y-120306991D01*
X104082923Y-120329233D01*
X104105165Y-120353774D01*
X104124895Y-120380377D01*
X104141922Y-120408786D01*
X104156083Y-120438726D01*
X104167241Y-120469911D01*
X104175289Y-120502039D01*
X104180149Y-120534801D01*
X104181774Y-120567882D01*
X104181774Y-121242882D01*
X104180149Y-121275963D01*
X104175289Y-121308725D01*
X104167241Y-121340853D01*
X104156083Y-121372038D01*
X104141922Y-121401978D01*
X104124895Y-121430387D01*
X104105165Y-121456990D01*
X104082923Y-121481531D01*
X104058382Y-121503773D01*
X104031779Y-121523503D01*
X104003370Y-121540530D01*
X103973430Y-121554691D01*
X103942245Y-121565849D01*
X103910117Y-121573897D01*
X103877355Y-121578757D01*
X103844274Y-121580382D01*
X103069274Y-121580382D01*
X103036193Y-121578757D01*
X103003431Y-121573897D01*
X102971303Y-121565849D01*
X102940118Y-121554691D01*
X102910178Y-121540530D01*
X102881769Y-121523503D01*
X102855166Y-121503773D01*
X102830625Y-121481531D01*
X102808383Y-121456990D01*
X102788653Y-121430387D01*
X102771626Y-121401978D01*
X102757465Y-121372038D01*
X102746307Y-121340853D01*
X102738259Y-121308725D01*
X102733399Y-121275963D01*
X102731774Y-121242882D01*
X102731774Y-120567882D01*
X102733399Y-120534801D01*
X102738259Y-120502039D01*
X102746307Y-120469911D01*
X102757465Y-120438726D01*
X102771626Y-120408786D01*
X102788653Y-120380377D01*
X102808383Y-120353774D01*
X102830625Y-120329233D01*
X102855166Y-120306991D01*
X102881769Y-120287261D01*
X102910178Y-120270234D01*
X102940118Y-120256073D01*
X102971303Y-120244915D01*
X103003431Y-120236867D01*
X103036193Y-120232007D01*
X103069274Y-120230382D01*
X103844274Y-120230382D01*
X103877355Y-120232007D01*
X103877355Y-120232007D01*
G37*
D14*
X103456774Y-120905382D03*
G04 #@! TD*
D13*
G04 #@! TO.C,R4*
G36*
X102020581Y-89496625D02*
X102053343Y-89501485D01*
X102085471Y-89509533D01*
X102116656Y-89520691D01*
X102146596Y-89534852D01*
X102175005Y-89551879D01*
X102201608Y-89571609D01*
X102226149Y-89593851D01*
X102248391Y-89618392D01*
X102268121Y-89644995D01*
X102285148Y-89673404D01*
X102299309Y-89703344D01*
X102310467Y-89734529D01*
X102318515Y-89766657D01*
X102323375Y-89799419D01*
X102325000Y-89832500D01*
X102325000Y-90507500D01*
X102323375Y-90540581D01*
X102318515Y-90573343D01*
X102310467Y-90605471D01*
X102299309Y-90636656D01*
X102285148Y-90666596D01*
X102268121Y-90695005D01*
X102248391Y-90721608D01*
X102226149Y-90746149D01*
X102201608Y-90768391D01*
X102175005Y-90788121D01*
X102146596Y-90805148D01*
X102116656Y-90819309D01*
X102085471Y-90830467D01*
X102053343Y-90838515D01*
X102020581Y-90843375D01*
X101987500Y-90845000D01*
X101212500Y-90845000D01*
X101179419Y-90843375D01*
X101146657Y-90838515D01*
X101114529Y-90830467D01*
X101083344Y-90819309D01*
X101053404Y-90805148D01*
X101024995Y-90788121D01*
X100998392Y-90768391D01*
X100973851Y-90746149D01*
X100951609Y-90721608D01*
X100931879Y-90695005D01*
X100914852Y-90666596D01*
X100900691Y-90636656D01*
X100889533Y-90605471D01*
X100881485Y-90573343D01*
X100876625Y-90540581D01*
X100875000Y-90507500D01*
X100875000Y-89832500D01*
X100876625Y-89799419D01*
X100881485Y-89766657D01*
X100889533Y-89734529D01*
X100900691Y-89703344D01*
X100914852Y-89673404D01*
X100931879Y-89644995D01*
X100951609Y-89618392D01*
X100973851Y-89593851D01*
X100998392Y-89571609D01*
X101024995Y-89551879D01*
X101053404Y-89534852D01*
X101083344Y-89520691D01*
X101114529Y-89509533D01*
X101146657Y-89501485D01*
X101179419Y-89496625D01*
X101212500Y-89495000D01*
X101987500Y-89495000D01*
X102020581Y-89496625D01*
X102020581Y-89496625D01*
G37*
D14*
X101600000Y-90170000D03*
D13*
G36*
X103770581Y-89496625D02*
X103803343Y-89501485D01*
X103835471Y-89509533D01*
X103866656Y-89520691D01*
X103896596Y-89534852D01*
X103925005Y-89551879D01*
X103951608Y-89571609D01*
X103976149Y-89593851D01*
X103998391Y-89618392D01*
X104018121Y-89644995D01*
X104035148Y-89673404D01*
X104049309Y-89703344D01*
X104060467Y-89734529D01*
X104068515Y-89766657D01*
X104073375Y-89799419D01*
X104075000Y-89832500D01*
X104075000Y-90507500D01*
X104073375Y-90540581D01*
X104068515Y-90573343D01*
X104060467Y-90605471D01*
X104049309Y-90636656D01*
X104035148Y-90666596D01*
X104018121Y-90695005D01*
X103998391Y-90721608D01*
X103976149Y-90746149D01*
X103951608Y-90768391D01*
X103925005Y-90788121D01*
X103896596Y-90805148D01*
X103866656Y-90819309D01*
X103835471Y-90830467D01*
X103803343Y-90838515D01*
X103770581Y-90843375D01*
X103737500Y-90845000D01*
X102962500Y-90845000D01*
X102929419Y-90843375D01*
X102896657Y-90838515D01*
X102864529Y-90830467D01*
X102833344Y-90819309D01*
X102803404Y-90805148D01*
X102774995Y-90788121D01*
X102748392Y-90768391D01*
X102723851Y-90746149D01*
X102701609Y-90721608D01*
X102681879Y-90695005D01*
X102664852Y-90666596D01*
X102650691Y-90636656D01*
X102639533Y-90605471D01*
X102631485Y-90573343D01*
X102626625Y-90540581D01*
X102625000Y-90507500D01*
X102625000Y-89832500D01*
X102626625Y-89799419D01*
X102631485Y-89766657D01*
X102639533Y-89734529D01*
X102650691Y-89703344D01*
X102664852Y-89673404D01*
X102681879Y-89644995D01*
X102701609Y-89618392D01*
X102723851Y-89593851D01*
X102748392Y-89571609D01*
X102774995Y-89551879D01*
X102803404Y-89534852D01*
X102833344Y-89520691D01*
X102864529Y-89509533D01*
X102896657Y-89501485D01*
X102929419Y-89496625D01*
X102962500Y-89495000D01*
X103737500Y-89495000D01*
X103770581Y-89496625D01*
X103770581Y-89496625D01*
G37*
D14*
X103350000Y-90170000D03*
G04 #@! TD*
D13*
G04 #@! TO.C,R5*
G36*
X99960581Y-89496625D02*
X99993343Y-89501485D01*
X100025471Y-89509533D01*
X100056656Y-89520691D01*
X100086596Y-89534852D01*
X100115005Y-89551879D01*
X100141608Y-89571609D01*
X100166149Y-89593851D01*
X100188391Y-89618392D01*
X100208121Y-89644995D01*
X100225148Y-89673404D01*
X100239309Y-89703344D01*
X100250467Y-89734529D01*
X100258515Y-89766657D01*
X100263375Y-89799419D01*
X100265000Y-89832500D01*
X100265000Y-90507500D01*
X100263375Y-90540581D01*
X100258515Y-90573343D01*
X100250467Y-90605471D01*
X100239309Y-90636656D01*
X100225148Y-90666596D01*
X100208121Y-90695005D01*
X100188391Y-90721608D01*
X100166149Y-90746149D01*
X100141608Y-90768391D01*
X100115005Y-90788121D01*
X100086596Y-90805148D01*
X100056656Y-90819309D01*
X100025471Y-90830467D01*
X99993343Y-90838515D01*
X99960581Y-90843375D01*
X99927500Y-90845000D01*
X99152500Y-90845000D01*
X99119419Y-90843375D01*
X99086657Y-90838515D01*
X99054529Y-90830467D01*
X99023344Y-90819309D01*
X98993404Y-90805148D01*
X98964995Y-90788121D01*
X98938392Y-90768391D01*
X98913851Y-90746149D01*
X98891609Y-90721608D01*
X98871879Y-90695005D01*
X98854852Y-90666596D01*
X98840691Y-90636656D01*
X98829533Y-90605471D01*
X98821485Y-90573343D01*
X98816625Y-90540581D01*
X98815000Y-90507500D01*
X98815000Y-89832500D01*
X98816625Y-89799419D01*
X98821485Y-89766657D01*
X98829533Y-89734529D01*
X98840691Y-89703344D01*
X98854852Y-89673404D01*
X98871879Y-89644995D01*
X98891609Y-89618392D01*
X98913851Y-89593851D01*
X98938392Y-89571609D01*
X98964995Y-89551879D01*
X98993404Y-89534852D01*
X99023344Y-89520691D01*
X99054529Y-89509533D01*
X99086657Y-89501485D01*
X99119419Y-89496625D01*
X99152500Y-89495000D01*
X99927500Y-89495000D01*
X99960581Y-89496625D01*
X99960581Y-89496625D01*
G37*
D14*
X99540000Y-90170000D03*
D13*
G36*
X98210581Y-89496625D02*
X98243343Y-89501485D01*
X98275471Y-89509533D01*
X98306656Y-89520691D01*
X98336596Y-89534852D01*
X98365005Y-89551879D01*
X98391608Y-89571609D01*
X98416149Y-89593851D01*
X98438391Y-89618392D01*
X98458121Y-89644995D01*
X98475148Y-89673404D01*
X98489309Y-89703344D01*
X98500467Y-89734529D01*
X98508515Y-89766657D01*
X98513375Y-89799419D01*
X98515000Y-89832500D01*
X98515000Y-90507500D01*
X98513375Y-90540581D01*
X98508515Y-90573343D01*
X98500467Y-90605471D01*
X98489309Y-90636656D01*
X98475148Y-90666596D01*
X98458121Y-90695005D01*
X98438391Y-90721608D01*
X98416149Y-90746149D01*
X98391608Y-90768391D01*
X98365005Y-90788121D01*
X98336596Y-90805148D01*
X98306656Y-90819309D01*
X98275471Y-90830467D01*
X98243343Y-90838515D01*
X98210581Y-90843375D01*
X98177500Y-90845000D01*
X97402500Y-90845000D01*
X97369419Y-90843375D01*
X97336657Y-90838515D01*
X97304529Y-90830467D01*
X97273344Y-90819309D01*
X97243404Y-90805148D01*
X97214995Y-90788121D01*
X97188392Y-90768391D01*
X97163851Y-90746149D01*
X97141609Y-90721608D01*
X97121879Y-90695005D01*
X97104852Y-90666596D01*
X97090691Y-90636656D01*
X97079533Y-90605471D01*
X97071485Y-90573343D01*
X97066625Y-90540581D01*
X97065000Y-90507500D01*
X97065000Y-89832500D01*
X97066625Y-89799419D01*
X97071485Y-89766657D01*
X97079533Y-89734529D01*
X97090691Y-89703344D01*
X97104852Y-89673404D01*
X97121879Y-89644995D01*
X97141609Y-89618392D01*
X97163851Y-89593851D01*
X97188392Y-89571609D01*
X97214995Y-89551879D01*
X97243404Y-89534852D01*
X97273344Y-89520691D01*
X97304529Y-89509533D01*
X97336657Y-89501485D01*
X97369419Y-89496625D01*
X97402500Y-89495000D01*
X98177500Y-89495000D01*
X98210581Y-89496625D01*
X98210581Y-89496625D01*
G37*
D14*
X97790000Y-90170000D03*
G04 #@! TD*
D10*
G04 #@! TO.C,SigIn*
X106680000Y-88900000D03*
G04 #@! TD*
G04 #@! TO.C,exGnd*
X96520000Y-87630000D03*
G04 #@! TD*
D13*
G04 #@! TO.C,R6*
G36*
X100750581Y-94576625D02*
X100783343Y-94581485D01*
X100815471Y-94589533D01*
X100846656Y-94600691D01*
X100876596Y-94614852D01*
X100905005Y-94631879D01*
X100931608Y-94651609D01*
X100956149Y-94673851D01*
X100978391Y-94698392D01*
X100998121Y-94724995D01*
X101015148Y-94753404D01*
X101029309Y-94783344D01*
X101040467Y-94814529D01*
X101048515Y-94846657D01*
X101053375Y-94879419D01*
X101055000Y-94912500D01*
X101055000Y-95587500D01*
X101053375Y-95620581D01*
X101048515Y-95653343D01*
X101040467Y-95685471D01*
X101029309Y-95716656D01*
X101015148Y-95746596D01*
X100998121Y-95775005D01*
X100978391Y-95801608D01*
X100956149Y-95826149D01*
X100931608Y-95848391D01*
X100905005Y-95868121D01*
X100876596Y-95885148D01*
X100846656Y-95899309D01*
X100815471Y-95910467D01*
X100783343Y-95918515D01*
X100750581Y-95923375D01*
X100717500Y-95925000D01*
X99942500Y-95925000D01*
X99909419Y-95923375D01*
X99876657Y-95918515D01*
X99844529Y-95910467D01*
X99813344Y-95899309D01*
X99783404Y-95885148D01*
X99754995Y-95868121D01*
X99728392Y-95848391D01*
X99703851Y-95826149D01*
X99681609Y-95801608D01*
X99661879Y-95775005D01*
X99644852Y-95746596D01*
X99630691Y-95716656D01*
X99619533Y-95685471D01*
X99611485Y-95653343D01*
X99606625Y-95620581D01*
X99605000Y-95587500D01*
X99605000Y-94912500D01*
X99606625Y-94879419D01*
X99611485Y-94846657D01*
X99619533Y-94814529D01*
X99630691Y-94783344D01*
X99644852Y-94753404D01*
X99661879Y-94724995D01*
X99681609Y-94698392D01*
X99703851Y-94673851D01*
X99728392Y-94651609D01*
X99754995Y-94631879D01*
X99783404Y-94614852D01*
X99813344Y-94600691D01*
X99844529Y-94589533D01*
X99876657Y-94581485D01*
X99909419Y-94576625D01*
X99942500Y-94575000D01*
X100717500Y-94575000D01*
X100750581Y-94576625D01*
X100750581Y-94576625D01*
G37*
D14*
X100330000Y-95250000D03*
D13*
G36*
X99000581Y-94576625D02*
X99033343Y-94581485D01*
X99065471Y-94589533D01*
X99096656Y-94600691D01*
X99126596Y-94614852D01*
X99155005Y-94631879D01*
X99181608Y-94651609D01*
X99206149Y-94673851D01*
X99228391Y-94698392D01*
X99248121Y-94724995D01*
X99265148Y-94753404D01*
X99279309Y-94783344D01*
X99290467Y-94814529D01*
X99298515Y-94846657D01*
X99303375Y-94879419D01*
X99305000Y-94912500D01*
X99305000Y-95587500D01*
X99303375Y-95620581D01*
X99298515Y-95653343D01*
X99290467Y-95685471D01*
X99279309Y-95716656D01*
X99265148Y-95746596D01*
X99248121Y-95775005D01*
X99228391Y-95801608D01*
X99206149Y-95826149D01*
X99181608Y-95848391D01*
X99155005Y-95868121D01*
X99126596Y-95885148D01*
X99096656Y-95899309D01*
X99065471Y-95910467D01*
X99033343Y-95918515D01*
X99000581Y-95923375D01*
X98967500Y-95925000D01*
X98192500Y-95925000D01*
X98159419Y-95923375D01*
X98126657Y-95918515D01*
X98094529Y-95910467D01*
X98063344Y-95899309D01*
X98033404Y-95885148D01*
X98004995Y-95868121D01*
X97978392Y-95848391D01*
X97953851Y-95826149D01*
X97931609Y-95801608D01*
X97911879Y-95775005D01*
X97894852Y-95746596D01*
X97880691Y-95716656D01*
X97869533Y-95685471D01*
X97861485Y-95653343D01*
X97856625Y-95620581D01*
X97855000Y-95587500D01*
X97855000Y-94912500D01*
X97856625Y-94879419D01*
X97861485Y-94846657D01*
X97869533Y-94814529D01*
X97880691Y-94783344D01*
X97894852Y-94753404D01*
X97911879Y-94724995D01*
X97931609Y-94698392D01*
X97953851Y-94673851D01*
X97978392Y-94651609D01*
X98004995Y-94631879D01*
X98033404Y-94614852D01*
X98063344Y-94600691D01*
X98094529Y-94589533D01*
X98126657Y-94581485D01*
X98159419Y-94576625D01*
X98192500Y-94575000D01*
X98967500Y-94575000D01*
X99000581Y-94576625D01*
X99000581Y-94576625D01*
G37*
D14*
X98580000Y-95250000D03*
G04 #@! TD*
D10*
G04 #@! TO.C,sigIn*
X106680000Y-97790000D03*
G04 #@! TD*
G04 #@! TO.C,exGnd*
X96520000Y-99060000D03*
G04 #@! TD*
D13*
G04 #@! TO.C,R7*
G36*
X102810581Y-94576625D02*
X102843343Y-94581485D01*
X102875471Y-94589533D01*
X102906656Y-94600691D01*
X102936596Y-94614852D01*
X102965005Y-94631879D01*
X102991608Y-94651609D01*
X103016149Y-94673851D01*
X103038391Y-94698392D01*
X103058121Y-94724995D01*
X103075148Y-94753404D01*
X103089309Y-94783344D01*
X103100467Y-94814529D01*
X103108515Y-94846657D01*
X103113375Y-94879419D01*
X103115000Y-94912500D01*
X103115000Y-95587500D01*
X103113375Y-95620581D01*
X103108515Y-95653343D01*
X103100467Y-95685471D01*
X103089309Y-95716656D01*
X103075148Y-95746596D01*
X103058121Y-95775005D01*
X103038391Y-95801608D01*
X103016149Y-95826149D01*
X102991608Y-95848391D01*
X102965005Y-95868121D01*
X102936596Y-95885148D01*
X102906656Y-95899309D01*
X102875471Y-95910467D01*
X102843343Y-95918515D01*
X102810581Y-95923375D01*
X102777500Y-95925000D01*
X102002500Y-95925000D01*
X101969419Y-95923375D01*
X101936657Y-95918515D01*
X101904529Y-95910467D01*
X101873344Y-95899309D01*
X101843404Y-95885148D01*
X101814995Y-95868121D01*
X101788392Y-95848391D01*
X101763851Y-95826149D01*
X101741609Y-95801608D01*
X101721879Y-95775005D01*
X101704852Y-95746596D01*
X101690691Y-95716656D01*
X101679533Y-95685471D01*
X101671485Y-95653343D01*
X101666625Y-95620581D01*
X101665000Y-95587500D01*
X101665000Y-94912500D01*
X101666625Y-94879419D01*
X101671485Y-94846657D01*
X101679533Y-94814529D01*
X101690691Y-94783344D01*
X101704852Y-94753404D01*
X101721879Y-94724995D01*
X101741609Y-94698392D01*
X101763851Y-94673851D01*
X101788392Y-94651609D01*
X101814995Y-94631879D01*
X101843404Y-94614852D01*
X101873344Y-94600691D01*
X101904529Y-94589533D01*
X101936657Y-94581485D01*
X101969419Y-94576625D01*
X102002500Y-94575000D01*
X102777500Y-94575000D01*
X102810581Y-94576625D01*
X102810581Y-94576625D01*
G37*
D14*
X102390000Y-95250000D03*
D13*
G36*
X104560581Y-94576625D02*
X104593343Y-94581485D01*
X104625471Y-94589533D01*
X104656656Y-94600691D01*
X104686596Y-94614852D01*
X104715005Y-94631879D01*
X104741608Y-94651609D01*
X104766149Y-94673851D01*
X104788391Y-94698392D01*
X104808121Y-94724995D01*
X104825148Y-94753404D01*
X104839309Y-94783344D01*
X104850467Y-94814529D01*
X104858515Y-94846657D01*
X104863375Y-94879419D01*
X104865000Y-94912500D01*
X104865000Y-95587500D01*
X104863375Y-95620581D01*
X104858515Y-95653343D01*
X104850467Y-95685471D01*
X104839309Y-95716656D01*
X104825148Y-95746596D01*
X104808121Y-95775005D01*
X104788391Y-95801608D01*
X104766149Y-95826149D01*
X104741608Y-95848391D01*
X104715005Y-95868121D01*
X104686596Y-95885148D01*
X104656656Y-95899309D01*
X104625471Y-95910467D01*
X104593343Y-95918515D01*
X104560581Y-95923375D01*
X104527500Y-95925000D01*
X103752500Y-95925000D01*
X103719419Y-95923375D01*
X103686657Y-95918515D01*
X103654529Y-95910467D01*
X103623344Y-95899309D01*
X103593404Y-95885148D01*
X103564995Y-95868121D01*
X103538392Y-95848391D01*
X103513851Y-95826149D01*
X103491609Y-95801608D01*
X103471879Y-95775005D01*
X103454852Y-95746596D01*
X103440691Y-95716656D01*
X103429533Y-95685471D01*
X103421485Y-95653343D01*
X103416625Y-95620581D01*
X103415000Y-95587500D01*
X103415000Y-94912500D01*
X103416625Y-94879419D01*
X103421485Y-94846657D01*
X103429533Y-94814529D01*
X103440691Y-94783344D01*
X103454852Y-94753404D01*
X103471879Y-94724995D01*
X103491609Y-94698392D01*
X103513851Y-94673851D01*
X103538392Y-94651609D01*
X103564995Y-94631879D01*
X103593404Y-94614852D01*
X103623344Y-94600691D01*
X103654529Y-94589533D01*
X103686657Y-94581485D01*
X103719419Y-94576625D01*
X103752500Y-94575000D01*
X104527500Y-94575000D01*
X104560581Y-94576625D01*
X104560581Y-94576625D01*
G37*
D14*
X104140000Y-95250000D03*
G04 #@! TD*
D13*
G04 #@! TO.C,R8*
G36*
X106225581Y-78066625D02*
X106258343Y-78071485D01*
X106290471Y-78079533D01*
X106321656Y-78090691D01*
X106351596Y-78104852D01*
X106380005Y-78121879D01*
X106406608Y-78141609D01*
X106431149Y-78163851D01*
X106453391Y-78188392D01*
X106473121Y-78214995D01*
X106490148Y-78243404D01*
X106504309Y-78273344D01*
X106515467Y-78304529D01*
X106523515Y-78336657D01*
X106528375Y-78369419D01*
X106530000Y-78402500D01*
X106530000Y-79077500D01*
X106528375Y-79110581D01*
X106523515Y-79143343D01*
X106515467Y-79175471D01*
X106504309Y-79206656D01*
X106490148Y-79236596D01*
X106473121Y-79265005D01*
X106453391Y-79291608D01*
X106431149Y-79316149D01*
X106406608Y-79338391D01*
X106380005Y-79358121D01*
X106351596Y-79375148D01*
X106321656Y-79389309D01*
X106290471Y-79400467D01*
X106258343Y-79408515D01*
X106225581Y-79413375D01*
X106192500Y-79415000D01*
X105417500Y-79415000D01*
X105384419Y-79413375D01*
X105351657Y-79408515D01*
X105319529Y-79400467D01*
X105288344Y-79389309D01*
X105258404Y-79375148D01*
X105229995Y-79358121D01*
X105203392Y-79338391D01*
X105178851Y-79316149D01*
X105156609Y-79291608D01*
X105136879Y-79265005D01*
X105119852Y-79236596D01*
X105105691Y-79206656D01*
X105094533Y-79175471D01*
X105086485Y-79143343D01*
X105081625Y-79110581D01*
X105080000Y-79077500D01*
X105080000Y-78402500D01*
X105081625Y-78369419D01*
X105086485Y-78336657D01*
X105094533Y-78304529D01*
X105105691Y-78273344D01*
X105119852Y-78243404D01*
X105136879Y-78214995D01*
X105156609Y-78188392D01*
X105178851Y-78163851D01*
X105203392Y-78141609D01*
X105229995Y-78121879D01*
X105258404Y-78104852D01*
X105288344Y-78090691D01*
X105319529Y-78079533D01*
X105351657Y-78071485D01*
X105384419Y-78066625D01*
X105417500Y-78065000D01*
X106192500Y-78065000D01*
X106225581Y-78066625D01*
X106225581Y-78066625D01*
G37*
D14*
X105805000Y-78740000D03*
D13*
G36*
X107975581Y-78066625D02*
X108008343Y-78071485D01*
X108040471Y-78079533D01*
X108071656Y-78090691D01*
X108101596Y-78104852D01*
X108130005Y-78121879D01*
X108156608Y-78141609D01*
X108181149Y-78163851D01*
X108203391Y-78188392D01*
X108223121Y-78214995D01*
X108240148Y-78243404D01*
X108254309Y-78273344D01*
X108265467Y-78304529D01*
X108273515Y-78336657D01*
X108278375Y-78369419D01*
X108280000Y-78402500D01*
X108280000Y-79077500D01*
X108278375Y-79110581D01*
X108273515Y-79143343D01*
X108265467Y-79175471D01*
X108254309Y-79206656D01*
X108240148Y-79236596D01*
X108223121Y-79265005D01*
X108203391Y-79291608D01*
X108181149Y-79316149D01*
X108156608Y-79338391D01*
X108130005Y-79358121D01*
X108101596Y-79375148D01*
X108071656Y-79389309D01*
X108040471Y-79400467D01*
X108008343Y-79408515D01*
X107975581Y-79413375D01*
X107942500Y-79415000D01*
X107167500Y-79415000D01*
X107134419Y-79413375D01*
X107101657Y-79408515D01*
X107069529Y-79400467D01*
X107038344Y-79389309D01*
X107008404Y-79375148D01*
X106979995Y-79358121D01*
X106953392Y-79338391D01*
X106928851Y-79316149D01*
X106906609Y-79291608D01*
X106886879Y-79265005D01*
X106869852Y-79236596D01*
X106855691Y-79206656D01*
X106844533Y-79175471D01*
X106836485Y-79143343D01*
X106831625Y-79110581D01*
X106830000Y-79077500D01*
X106830000Y-78402500D01*
X106831625Y-78369419D01*
X106836485Y-78336657D01*
X106844533Y-78304529D01*
X106855691Y-78273344D01*
X106869852Y-78243404D01*
X106886879Y-78214995D01*
X106906609Y-78188392D01*
X106928851Y-78163851D01*
X106953392Y-78141609D01*
X106979995Y-78121879D01*
X107008404Y-78104852D01*
X107038344Y-78090691D01*
X107069529Y-78079533D01*
X107101657Y-78071485D01*
X107134419Y-78066625D01*
X107167500Y-78065000D01*
X107942500Y-78065000D01*
X107975581Y-78066625D01*
X107975581Y-78066625D01*
G37*
D14*
X107555000Y-78740000D03*
G04 #@! TD*
M02*
